<?xml version="1.0" standalone="no"?>
<!DOCTYPE svg PUBLIC "-//W3C//DTD SVG 20010904//EN"
 "http://www.w3.org/TR/2001/REC-SVG-20010904/DTD/svg10.dtd">
<svg version="1.0" xmlns="http://www.w3.org/2000/svg"
 width="512.000000pt" height="512.000000pt" viewBox="0 0 512.000000 512.000000"
 preserveAspectRatio="xMidYMid meet">

<g transform="translate(0.000000,512.000000) scale(0.100000,-0.100000)"
fill="#333333" stroke="none">
<path d="M681 4784 c-169 -45 -301 -180 -346 -351 -22 -83 -22 -2682 -1 -2784
19 -89 57 -161 116 -219 128 -129 295 -160 802 -150 229 5 249 6 274 26 53 39
69 71 69 134 0 63 -16 95 -69 134 -26 20 -43 21 -406 26 -363 5 -380 6 -406
26 -15 11 -37 33 -48 48 -21 27 -21 30 -21 1366 0 1336 0 1339 21 1366 11 15
33 37 48 48 l27 21 1819 0 1819 0 27 -21 c15 -11 37 -33 48 -48 21 -27 21 -30
21 -1366 0 -1336 0 -1339 -21 -1366 -11 -15 -33 -37 -48 -48 -26 -20 -43 -21
-406 -26 -363 -5 -380 -6 -406 -26 -53 -39 -69 -71 -69 -134 0 -63 16 -95 69
-134 26 -20 42 -21 398 -24 244 -2 390 1 425 8 175 37 322 179 368 357 23 87
22 2700 0 2788 -45 172 -179 305 -352 350 -85 22 -3669 21 -3752 -1z"/>
<path d="M2431 3989 c-273 -48 -475 -233 -553 -505 -18 -63 -22 -104 -22 -204
0 -150 15 -216 80 -349 76 -154 207 -269 371 -326 298 -104 640 -12 809 218
107 145 148 271 148 457 0 148 -21 238 -87 364 -80 157 -242 283 -422 331 -74
19 -251 27 -324 14z"/>
<path d="M2425 2389 c-27 -5 -79 -19 -115 -31 -257 -83 -454 -293 -526 -563
-18 -65 -19 -114 -19 -655 l0 -585 23 -45 c35 -72 75 -114 144 -151 l63 -34
565 0 565 0 63 34 c70 38 100 69 140 145 l27 51 0 585 c0 516 -2 592 -17 645
-29 106 -58 172 -108 248 -112 173 -271 287 -480 344 -68 18 -258 25 -325 12z"/>
</g>
</svg>
