<?xml version="1.0" standalone="no"?>
<!DOCTYPE svg PUBLIC "-//W3C//DTD SVG 20010904//EN"
 "http://www.w3.org/TR/2001/REC-SVG-20010904/DTD/svg10.dtd">
<svg version="1.0" xmlns="http://www.w3.org/2000/svg"
 width="512.000000pt" height="512.000000pt" viewBox="0 0 512.000000 512.000000"
 preserveAspectRatio="xMidYMid meet">

<g transform="translate(0.000000,512.000000) scale(0.100000,-0.100000)"
fill="#333333" stroke="none">
<path d="M2433 4796 c-68 -16 -1119 -499 -1189 -547 -156 -106 -201 -336 -99
-500 58 -91 93 -110 666 -377 299 -139 571 -260 604 -269 77 -20 213 -20 290
0 33 8 305 129 604 268 574 267 608 286 666 379 52 83 69 209 40 306 -19 66
-79 150 -135 190 -50 36 -1026 493 -1134 531 -87 31 -223 39 -313 19z"/>
<path d="M1550 3018 c0 -181 4 -260 15 -308 48 -205 172 -384 343 -499 51 -33
54 -37 48 -70 -8 -53 -52 -135 -103 -191 -25 -28 -42 -55 -37 -59 16 -14 734
-421 743 -421 4 0 80 42 167 93 346 203 559 330 562 332 1 1 -13 13 -33 26
-21 15 -43 42 -55 71 -19 44 -54 178 -48 182 117 66 242 187 306 295 24 40 57
114 75 165 l31 91 4 268 4 268 -39 -19 c-114 -58 -695 -322 -738 -336 -135
-42 -304 -45 -444 -6 -56 16 -666 289 -783 351 -17 9 -18 -5 -18 -233z"/>
<path d="M3280 1520 l-555 -328 -3 -461 -2 -461 811 0 c895 0 850 -3 900 63
l24 32 3 390 c3 425 -2 479 -55 612 -50 124 -159 263 -273 349 -50 37 -176 99
-239 118 -30 9 -55 16 -55 15 -1 0 -251 -148 -556 -329z"/>
<path d="M1195 1821 c-270 -98 -464 -320 -520 -596 -13 -67 -15 -142 -13 -470
3 -430 0 -410 67 -461 25 -18 52 -19 849 -22 l822 -2 0 459 0 458 -567 324
c-311 178 -571 325 -577 326 -6 2 -33 -6 -61 -16z"/>
</g>
</svg>
