<svg xmlns="http://www.w3.org/2000/svg" width="192" height="192" fill="#ffffff" viewBox="0 0 256 256"><rect width="256" height="256" fill="none"></rect><line x1="160" y1="96" x2="208" y2="96" fill="none" stroke="#ffffff" stroke-linecap="round" stroke-linejoin="round" stroke-width="24"></line><line x1="160" y1="160" x2="208" y2="160" fill="none" stroke="#ffffff" stroke-linecap="round" stroke-linejoin="round" stroke-width="24"></line><path d="M64,68V40a8,8,0,0,1,8-8H200a8,8,0,0,1,8,8V216a8,8,0,0,1-8,8H72a8,8,0,0,1-8-8V188" fill="none" stroke="#ffffff" stroke-linecap="round" stroke-linejoin="round" stroke-width="24"></path><line x1="136" y1="188" x2="136" y2="224" fill="none" stroke="#ffffff" stroke-linecap="round" stroke-linejoin="round" stroke-width="24"></line><line x1="136" y1="32" x2="136" y2="68" fill="none" stroke="#ffffff" stroke-linecap="round" stroke-linejoin="round" stroke-width="24"></line><rect x="32" y="68" width="128" height="120" rx="8" fill="none" stroke="#ffffff" stroke-linecap="round" stroke-linejoin="round" stroke-width="24"></rect><line x1="78" y1="104" x2="114" y2="152" fill="none" stroke="#ffffff" stroke-linecap="round" stroke-linejoin="round" stroke-width="24"></line><line x1="114" y1="104" x2="78" y2="152" fill="none" stroke="#ffffff" stroke-linecap="round" stroke-linejoin="round" stroke-width="24"></line></svg>